<svg width="359" height="26" viewBox="0 0 359 26" fill="none" xmlns="http://www.w3.org/2000/svg">
<path d="M59.9918 0.315H70.5268V0.805H66.8868L74.0968 21.105H74.1668L78.8218 8.19L76.1618 0.805H73.2218V0.315H83.7218V0.805H79.9068L87.1168 21.105H87.1868L94.5368 0.805H90.7918V0.315H98.2818V0.805H95.1318L86.0668 25.76H85.1918L79.1718 8.96H79.1018L73.0118 25.76H72.0668L63.1418 0.805H59.9918V0.315Z" fill="#2C1B02"/>
<path d="M99.5281 17.745C99.5281 19.4017 99.6565 20.72 99.9131 21.7C100.17 22.68 100.508 23.4383 100.928 23.975C101.348 24.4883 101.838 24.8267 102.398 24.99C102.958 25.1533 103.553 25.235 104.183 25.235C104.813 25.235 105.408 25.1533 105.968 24.99C106.528 24.8267 107.018 24.4883 107.438 23.975C107.858 23.4383 108.196 22.68 108.453 21.7C108.71 20.72 108.838 19.4017 108.838 17.745C108.838 16.345 108.745 15.1783 108.558 14.245C108.371 13.2883 108.08 12.5183 107.683 11.935C107.31 11.3283 106.831 10.8967 106.248 10.64C105.665 10.3833 104.976 10.255 104.183 10.255C103.39 10.255 102.701 10.3833 102.118 10.64C101.535 10.8967 101.045 11.3283 100.648 11.935C100.275 12.5183 99.9948 13.2883 99.8081 14.245C99.6215 15.1783 99.5281 16.345 99.5281 17.745ZM96.0281 17.745C96.0281 16.6017 96.2731 15.54 96.7631 14.56C97.2765 13.58 97.9181 12.74 98.6881 12.04C99.4815 11.3167 100.356 10.7567 101.313 10.36C102.293 9.96333 103.25 9.765 104.183 9.765C105.116 9.765 106.061 9.96333 107.018 10.36C107.998 10.7567 108.873 11.3167 109.643 12.04C110.436 12.74 111.078 13.58 111.568 14.56C112.081 15.54 112.338 16.6017 112.338 17.745C112.338 18.8417 112.105 19.88 111.638 20.86C111.171 21.8167 110.553 22.6567 109.783 23.38C109.036 24.1033 108.173 24.675 107.193 25.095C106.213 25.515 105.21 25.725 104.183 25.725C103.156 25.725 102.153 25.515 101.173 25.095C100.193 24.675 99.3181 24.1033 98.5481 23.38C97.8015 22.6567 97.1948 21.8167 96.7281 20.86C96.2615 19.88 96.0281 18.8417 96.0281 17.745Z" fill="#2C1B02"/>
<path d="M114.846 24.745H117.541V10.71H114.846V10.22H120.481V13.755H120.551C120.645 13.405 120.796 13.0083 121.006 12.565C121.216 12.1217 121.508 11.7017 121.881 11.305C122.255 10.885 122.698 10.535 123.211 10.255C123.748 9.975 124.39 9.835 125.136 9.835C125.673 9.835 126.14 9.92833 126.536 10.115C126.933 10.2783 127.26 10.5 127.516 10.78C127.773 11.0367 127.96 11.34 128.076 11.69C128.193 12.04 128.251 12.39 128.251 12.74C128.251 13.51 128.076 14.0233 127.726 14.28C127.376 14.5367 126.968 14.665 126.501 14.665C125.475 14.665 124.961 14.3383 124.961 13.685C124.961 13.475 124.985 13.3117 125.031 13.195C125.078 13.055 125.125 12.9267 125.171 12.81C125.241 12.67 125.3 12.5183 125.346 12.355C125.393 12.1917 125.416 11.9583 125.416 11.655C125.416 10.9083 125.008 10.535 124.191 10.535C123.818 10.535 123.421 10.675 123.001 10.955C122.581 11.235 122.185 11.6433 121.811 12.18C121.461 12.7167 121.158 13.37 120.901 14.14C120.668 14.8867 120.551 15.75 120.551 16.73V24.745H123.596V25.235H114.846V24.745Z" fill="#2C1B02"/>
<path d="M129.029 24.745H131.724V10.71H129.029V10.22H134.664V13.965H134.734C134.874 13.6617 135.073 13.2767 135.329 12.81C135.609 12.3433 135.983 11.8883 136.449 11.445C136.916 11.0017 137.499 10.6283 138.199 10.325C138.899 9.99833 139.751 9.835 140.754 9.835C142.294 9.835 143.543 10.2083 144.499 10.955C145.479 11.7017 145.969 12.8917 145.969 14.525V24.745H148.664V25.235H140.264V24.745H142.959V13.44C142.959 12.53 142.738 11.7833 142.294 11.2C141.874 10.6167 141.209 10.325 140.299 10.325C139.553 10.325 138.841 10.4883 138.164 10.815C137.488 11.1417 136.893 11.5967 136.379 12.18C135.866 12.7633 135.458 13.4517 135.154 14.245C134.874 15.0383 134.734 15.9017 134.734 16.835V24.745H137.429V25.235H129.029V24.745Z" fill="#2C1B02"/>
<path d="M154.626 17.745C154.626 19.4017 154.754 20.72 155.011 21.7C155.267 22.68 155.606 23.4383 156.026 23.975C156.446 24.4883 156.936 24.8267 157.496 24.99C158.056 25.1533 158.651 25.235 159.281 25.235C159.911 25.235 160.506 25.1533 161.066 24.99C161.626 24.8267 162.116 24.4883 162.536 23.975C162.956 23.4383 163.294 22.68 163.551 21.7C163.807 20.72 163.936 19.4017 163.936 17.745C163.936 16.345 163.842 15.1783 163.656 14.245C163.469 13.2883 163.177 12.5183 162.781 11.935C162.407 11.3283 161.929 10.8967 161.346 10.64C160.762 10.3833 160.074 10.255 159.281 10.255C158.487 10.255 157.799 10.3833 157.216 10.64C156.632 10.8967 156.142 11.3283 155.746 11.935C155.372 12.5183 155.092 13.2883 154.906 14.245C154.719 15.1783 154.626 16.345 154.626 17.745ZM151.126 17.745C151.126 16.6017 151.371 15.54 151.861 14.56C152.374 13.58 153.016 12.74 153.786 12.04C154.579 11.3167 155.454 10.7567 156.411 10.36C157.391 9.96333 158.347 9.765 159.281 9.765C160.214 9.765 161.159 9.96333 162.116 10.36C163.096 10.7567 163.971 11.3167 164.741 12.04C165.534 12.74 166.176 13.58 166.666 14.56C167.179 15.54 167.436 16.6017 167.436 17.745C167.436 18.8417 167.202 19.88 166.736 20.86C166.269 21.8167 165.651 22.6567 164.881 23.38C164.134 24.1033 163.271 24.675 162.291 25.095C161.311 25.515 160.307 25.725 159.281 25.725C158.254 25.725 157.251 25.515 156.271 25.095C155.291 24.675 154.416 24.1033 153.646 23.38C152.899 22.6567 152.292 21.8167 151.826 20.86C151.359 19.88 151.126 18.8417 151.126 17.745Z" fill="#2C1B02"/>
<path d="M184.609 21.385C184.539 21.6417 184.399 22.015 184.189 22.505C184.002 22.9717 183.687 23.45 183.244 23.94C182.824 24.4067 182.241 24.8267 181.494 25.2C180.771 25.55 179.826 25.725 178.659 25.725C177.772 25.725 176.851 25.585 175.894 25.305C174.937 25.025 174.062 24.5817 173.269 23.975C172.476 23.345 171.822 22.5283 171.309 21.525C170.819 20.5217 170.574 19.285 170.574 17.815C170.574 16.6717 170.784 15.61 171.204 14.63C171.647 13.65 172.231 12.7983 172.954 12.075C173.701 11.3517 174.564 10.7917 175.544 10.395C176.547 9.975 177.609 9.765 178.729 9.765C179.359 9.765 180.001 9.84667 180.654 10.01C181.331 10.15 181.937 10.3833 182.474 10.71C183.034 11.0133 183.489 11.4217 183.839 11.935C184.212 12.425 184.399 13.0317 184.399 13.755C184.399 14.245 184.236 14.6533 183.909 14.98C183.606 15.2833 183.162 15.435 182.579 15.435C182.182 15.435 181.797 15.3533 181.424 15.19C181.074 15.0033 180.899 14.7 180.899 14.28C180.899 13.9533 180.981 13.5567 181.144 13.09C181.307 12.6233 181.389 12.2383 181.389 11.935C181.389 11.3983 181.121 10.99 180.584 10.71C180.047 10.4067 179.429 10.255 178.729 10.255C178.216 10.255 177.679 10.325 177.119 10.465C176.582 10.5817 176.081 10.8967 175.614 11.41C175.171 11.9233 174.797 12.6933 174.494 13.72C174.214 14.7467 174.074 16.1467 174.074 17.92C174.074 18.9233 174.132 19.8683 174.249 20.755C174.389 21.6417 174.622 22.4233 174.949 23.1C175.299 23.7533 175.766 24.2783 176.349 24.675C176.956 25.0483 177.737 25.235 178.694 25.235C179.721 25.235 180.561 25.0833 181.214 24.78C181.891 24.4767 182.416 24.115 182.789 23.695C183.186 23.2517 183.477 22.8083 183.664 22.365C183.851 21.9217 183.991 21.56 184.084 21.28L184.609 21.385Z" fill="#2C1B02"/>
<path d="M186.488 24.745H189.183V0.49H186.488V0H192.193V16.73H192.578L199.543 10.71H197.058V10.22H202.483V10.71H200.383L194.923 15.4L202.658 24.745H204.163V25.235H196.288V24.745H198.773L192.578 17.22H192.193V24.745H194.118V25.235H186.488V24.745Z" fill="#2C1B02"/>
<path d="M210.553 0.315H221.088V0.805H217.448L224.658 21.105H224.728L229.383 8.19L226.723 0.805H223.783V0.315H234.283V0.805H230.468L237.678 21.105H237.748L245.098 0.805H241.353V0.315H248.843V0.805H245.693L236.628 25.76H235.753L229.733 8.96H229.663L223.573 25.76H222.628L213.703 0.805H210.553V0.315Z" fill="#2C1B02"/>
<path d="M250.09 17.745C250.09 19.4017 250.218 20.72 250.475 21.7C250.731 22.68 251.07 23.4383 251.49 23.975C251.91 24.4883 252.4 24.8267 252.96 24.99C253.52 25.1533 254.115 25.235 254.745 25.235C255.375 25.235 255.97 25.1533 256.53 24.99C257.09 24.8267 257.58 24.4883 258 23.975C258.42 23.4383 258.758 22.68 259.015 21.7C259.271 20.72 259.4 19.4017 259.4 17.745C259.4 16.345 259.306 15.1783 259.12 14.245C258.933 13.2883 258.641 12.5183 258.245 11.935C257.871 11.3283 257.393 10.8967 256.81 10.64C256.226 10.3833 255.538 10.255 254.745 10.255C253.951 10.255 253.263 10.3833 252.68 10.64C252.096 10.8967 251.606 11.3283 251.21 11.935C250.836 12.5183 250.556 13.2883 250.37 14.245C250.183 15.1783 250.09 16.345 250.09 17.745ZM246.59 17.745C246.59 16.6017 246.835 15.54 247.325 14.56C247.838 13.58 248.48 12.74 249.25 12.04C250.043 11.3167 250.918 10.7567 251.875 10.36C252.855 9.96333 253.811 9.765 254.745 9.765C255.678 9.765 256.623 9.96333 257.58 10.36C258.56 10.7567 259.435 11.3167 260.205 12.04C260.998 12.74 261.64 13.58 262.13 14.56C262.643 15.54 262.9 16.6017 262.9 17.745C262.9 18.8417 262.666 19.88 262.2 20.86C261.733 21.8167 261.115 22.6567 260.345 23.38C259.598 24.1033 258.735 24.675 257.755 25.095C256.775 25.515 255.771 25.725 254.745 25.725C253.718 25.725 252.715 25.515 251.735 25.095C250.755 24.675 249.88 24.1033 249.11 23.38C248.363 22.6567 247.756 21.8167 247.29 20.86C246.823 19.88 246.59 18.8417 246.59 17.745Z" fill="#2C1B02"/>
<path d="M269.538 17.745C269.538 19.4017 269.666 20.72 269.923 21.7C270.18 22.68 270.518 23.4383 270.938 23.975C271.358 24.4883 271.848 24.8267 272.408 24.99C272.968 25.1533 273.563 25.235 274.193 25.235C274.823 25.235 275.418 25.1533 275.978 24.99C276.538 24.8267 277.028 24.4883 277.448 23.975C277.868 23.4383 278.206 22.68 278.463 21.7C278.72 20.72 278.848 19.4017 278.848 17.745C278.848 16.345 278.755 15.1783 278.568 14.245C278.381 13.2883 278.09 12.5183 277.693 11.935C277.32 11.3283 276.841 10.8967 276.258 10.64C275.675 10.3833 274.986 10.255 274.193 10.255C273.4 10.255 272.711 10.3833 272.128 10.64C271.545 10.8967 271.055 11.3283 270.658 11.935C270.285 12.5183 270.005 13.2883 269.818 14.245C269.631 15.1783 269.538 16.345 269.538 17.745ZM266.038 17.745C266.038 16.6017 266.283 15.54 266.773 14.56C267.286 13.58 267.928 12.74 268.698 12.04C269.491 11.3167 270.366 10.7567 271.323 10.36C272.303 9.96333 273.26 9.765 274.193 9.765C275.126 9.765 276.071 9.96333 277.028 10.36C278.008 10.7567 278.883 11.3167 279.653 12.04C280.446 12.74 281.088 13.58 281.578 14.56C282.091 15.54 282.348 16.6017 282.348 17.745C282.348 18.8417 282.115 19.88 281.648 20.86C281.181 21.8167 280.563 22.6567 279.793 23.38C279.046 24.1033 278.183 24.675 277.203 25.095C276.223 25.515 275.22 25.725 274.193 25.725C273.166 25.725 272.163 25.515 271.183 25.095C270.203 24.675 269.328 24.1033 268.558 23.38C267.811 22.6567 267.205 21.8167 266.738 20.86C266.271 19.88 266.038 18.8417 266.038 17.745Z" fill="#2C1B02"/>
<path d="M289.231 17.22C289.231 18.4333 289.266 19.5417 289.336 20.545C289.406 21.525 289.581 22.365 289.861 23.065C290.141 23.765 290.561 24.3017 291.121 24.675C291.681 25.0483 292.439 25.235 293.396 25.235C294.376 25.235 295.158 25.025 295.741 24.605C296.348 24.185 296.814 23.6483 297.141 22.995C297.468 22.3183 297.689 21.5717 297.806 20.755C297.923 19.9383 297.981 19.145 297.981 18.375C297.981 17.465 297.958 16.6833 297.911 16.03C297.888 15.3533 297.829 14.7583 297.736 14.245C297.643 13.7317 297.514 13.2883 297.351 12.915C297.188 12.5417 296.989 12.1917 296.756 11.865C296.406 11.3983 295.951 11.0133 295.391 10.71C294.831 10.4067 294.119 10.255 293.256 10.255C292.439 10.255 291.763 10.4183 291.226 10.745C290.713 11.0717 290.304 11.5383 290.001 12.145C289.721 12.7517 289.523 13.4867 289.406 14.35C289.289 15.19 289.231 16.1467 289.231 17.22ZM295.286 0H300.991V24.745H303.686V25.235H298.051V22.19H297.981C297.888 22.47 297.748 22.8083 297.561 23.205C297.374 23.6017 297.094 23.9867 296.721 24.36C296.371 24.7333 295.916 25.0483 295.356 25.305C294.819 25.585 294.154 25.725 293.361 25.725C292.334 25.725 291.354 25.5033 290.421 25.06C289.511 24.6167 288.706 24.0217 288.006 23.275C287.306 22.5283 286.746 21.6767 286.326 20.72C285.929 19.74 285.731 18.7133 285.731 17.64C285.731 16.59 285.929 15.5867 286.326 14.63C286.723 13.6733 287.259 12.845 287.936 12.145C288.613 11.4217 289.394 10.85 290.281 10.43C291.168 9.98667 292.113 9.765 293.116 9.765C294.399 9.765 295.438 10.08 296.231 10.71C297.024 11.34 297.584 12.11 297.911 13.02H297.981V0.49H295.286V0Z" fill="#2C1B02"/>
<path d="M0 14.735C0 13.9066 0.671573 13.235 1.5 13.235H33.5C34.3284 13.235 35 13.9066 35 14.735C35 15.5634 34.3284 16.235 33.5 16.235H1.5C0.671574 16.235 0 15.5634 0 14.735Z" fill="#2C1B02"/>
<path d="M324 14.735C324 13.9066 324.672 13.235 325.5 13.235H357.5C358.328 13.235 359 13.9066 359 14.735C359 15.5634 358.328 16.235 357.5 16.235H325.5C324.672 16.235 324 15.5634 324 14.735Z" fill="#2C1B02"/>
</svg>
